<?xml version="1.0" standalone="no"?>
<!DOCTYPE svg PUBLIC "-//W3C//DTD SVG 20010904//EN"
 "http://www.w3.org/TR/2001/REC-SVG-20010904/DTD/svg10.dtd">
<svg version="1.0" xmlns="http://www.w3.org/2000/svg"
 width="512.000000pt" height="512.000000pt" viewBox="0 0 512.000000 512.000000"
 preserveAspectRatio="xMidYMid meet">

<g transform="translate(0.000000,512.000000) scale(0.100000,-0.100000)"
fill="#EC2727" stroke="none">
<path d="M4444 5106 c-28 -7 -81 -28 -117 -47 -91 -46 -2221 -1804 -2388
-1969 -167 -166 -264 -300 -389 -534 -47 -90 -60 -121 -49 -124 21 -6 876
-861 901 -900 l20 -33 127 67 c224 118 385 237 548 404 136 140 1913 2297
1947 2363 40 79 56 151 56 247 -1 154 -42 259 -146 370 -131 139 -330 200
-510 156z"/>
<path d="M2050 4415 c0 -248 4 -435 9 -435 18 0 117 118 148 176 58 108 78
252 52 376 -22 105 -125 274 -190 308 -19 10 -19 1 -19 -425z"/>
<path d="M4260 2006 l0 -84 61 -63 c227 -236 306 -566 213 -888 -34 -120 -128
-273 -223 -366 l-51 -49 0 -88 c0 -48 3 -88 6 -88 26 0 142 38 202 66 120 55
248 158 332 266 47 61 102 169 132 258 31 91 32 102 32 260 1 191 -10 242 -79
386 -103 214 -279 369 -501 443 -51 17 -99 31 -108 31 -13 0 -16 -14 -16 -84z"/>
</g>
</svg>
